# Blender v3.2.1 OBJ File: 'testhouse.blend'
# www.blender.org
mtllib testhouse.mtl
o Cube
v 4.000000 -4.000000 -4.000000
v 4.000000 -4.000000 4.000000
v -4.000000 -4.000000 -4.000000
v -4.000000 -4.000000 4.000000
v -4.000000 -4.000000 0.000000
v 4.000000 -4.000000 0.000000
v -4.000000 -4.000000 2.000000
v 4.000000 -4.000000 2.000000
v 0.000000 -4.000000 -4.000000
v 0.000000 -4.000000 4.000000
v 0.000000 -4.000000 0.000000
v 0.000000 4.000000 0.000000
v 0.000000 -4.000000 2.000000
v 0.000000 4.000000 2.000000
v 4.000000 -4.000000 -2.000000
v -4.000000 -4.000000 -2.000000
v 0.000000 4.000000 -2.000000
v 0.000000 -4.000000 -2.000000
v 4.000000 0.000000 -4.000000
v -4.000000 0.000000 4.000000
v 4.000000 0.000000 4.000000
v -4.000000 0.000000 -4.000000
v 4.000000 0.000000 0.000000
v -4.000000 0.000000 0.000000
v -4.000000 0.000000 2.000000
v 4.000000 0.000000 2.000000
v 0.000000 0.000000 -4.000000
v 0.000000 -0.093664 3.959999
v 4.000000 0.000000 -2.000000
v -4.000000 0.000000 -2.000000
v 3.617457 -4.000000 1.920000
v 3.617457 -4.000000 -0.080000
v 3.617457 -0.160000 -0.080000
v 3.617457 -0.160000 1.920000
v 3.617457 -4.000000 -1.920000
v 3.617457 -0.160000 -1.920000
v 3.617457 -0.160000 0.080000
v 3.617457 -4.000000 0.080000
v 3.617457 -4.000000 -2.000000
v 3.617457 0.000000 -2.000000
v 3.617457 -4.000000 2.000000
v 3.617457 -4.000000 0.000000
v 3.617457 0.000000 0.000000
v 3.617457 0.000000 2.000000
v 3.657457 -0.160000 -0.080000
v 3.657457 -4.000000 -0.080000
v 3.657457 -4.000000 -1.920000
v 3.657457 -0.160000 -1.920000
v 3.657457 -4.000000 1.920000
v 3.657457 -4.000000 0.080000
v 3.657457 -0.160000 0.080000
v 3.657457 -0.160000 1.920000
v 3.617457 -1.909801 -0.080000
v 3.617457 -2.084958 -0.080000
v 3.657457 -1.910641 -0.080000
v 3.657457 -2.085798 -0.080000
v -4.000000 -1.750231 0.000000
v -4.000000 -1.925387 0.000000
v 3.657457 -1.910701 -0.308857
v 3.657457 -2.085861 -0.308857
v -4.000000 -1.750285 -0.201933
v -4.000000 -1.925445 -0.201932
v 3.727635 -1.910641 -0.080000
v 3.727635 -2.085798 -0.080000
v 3.727635 -1.910701 -0.308857
v 3.727635 -2.085861 -0.308857
v 4.000000 1.717203 -4.000000
v 4.000000 1.717203 -2.000000
v 0.000000 1.717203 -4.000000
v 4.000000 1.717203 4.000000
v 0.000000 1.717203 4.000000
v 4.000000 1.717203 2.000000
v -4.000000 1.717203 -4.000000
v -4.000000 1.717203 -2.000000
v -4.000000 1.717203 4.000000
v -4.000000 1.717203 2.000000
v 4.000000 1.717203 0.000000
v -4.000000 1.717203 0.000000
v 4.998974 2.106497 -4.998974
v 4.974476 1.974415 -4.974476
v 4.998974 2.106497 4.998974
v 4.974476 1.974415 4.974476
v -4.998974 2.106497 -4.998974
v -4.974476 1.974415 -4.974476
v -4.998974 2.106497 4.998974
v -4.974476 1.974415 4.974476
v 4.998974 2.106497 0.000000
v 4.974476 1.974415 0.000000
v -4.998974 2.106497 0.000000
v -4.974476 1.974415 0.000000
v 4.974476 1.974415 2.487238
v 4.998974 2.106497 2.537148
v -4.974476 1.974415 2.487238
v -4.998974 2.106497 2.537148
v 0.000000 1.974415 4.974476
v 0.000000 2.106497 4.998974
v 0.000000 1.974415 -4.974476
v 0.000000 2.106497 -4.998974
v -4.974476 1.974415 -2.487238
v -4.998974 2.106497 -2.537148
v 4.974476 1.974415 -2.487238
v 4.998974 2.106497 -2.537148
v 2.997304 4.000000 -2.832598
v 3.632793 3.614468 -3.171346
v 2.997304 4.000000 2.832598
v 3.632793 3.614468 3.171346
v -2.997304 4.000000 -2.832598
v -3.632793 3.614468 -3.171346
v -2.997304 4.000000 2.832598
v -3.632793 3.614468 3.171346
v 2.997304 4.000000 0.000000
v 3.632793 3.614468 0.000000
v -2.997304 4.000000 0.000000
v -3.632793 3.614468 0.000000
v 3.632793 3.614468 2.513492
v 2.997304 4.000000 2.665970
v -3.632793 3.614468 2.513492
v -2.997304 4.000000 2.665970
v 0.000000 3.614468 3.171346
v 0.000000 4.000000 2.832598
v 0.000000 3.614468 -3.171346
v 0.000000 4.000000 -2.832598
v -3.632793 3.614468 -2.513492
v -2.997304 4.000000 -2.665970
v 3.632793 3.614468 -2.513492
v 2.997304 4.000000 -2.665970
v 0.794550 4.000000 1.038069
v 0.333464 4.000000 1.038069
v 0.333526 4.000000 1.732542
v 1.163328 4.000000 1.732430
v 0.868343 4.000000 1.732470
v 0.868337 4.000000 1.038069
v 0.333526 4.575998 1.732542
v 0.868343 4.575998 1.732470
v 0.333464 4.575998 1.038069
v 0.868337 4.575998 1.038069
v 0.333526 4.778269 1.732542
v 0.868343 4.778269 1.732470
v 0.333464 4.778269 1.038069
v 0.868337 4.778269 1.038069
v 2.146213 -0.093664 3.959999
v -0.000000 -1.426738 3.959999
v -1.932645 -0.093664 3.959999
v -1.932645 -1.426738 3.959999
v 2.146208 -1.426737 3.959999
v 2.239877 0.000000 4.000000
v 0.000000 0.000000 4.000000
v -2.026309 0.000000 4.000000
v -2.026309 -1.520402 4.000000
v 0.000000 -1.520402 4.000000
v 2.239872 -1.520401 4.000000
v -4.000000 -2.618178 -4.000000
v 2.023659 -4.000000 -4.000000
v 4.000000 -2.618179 -4.000000
v 0.000000 -2.618179 -4.144924
v -2.193897 -4.000000 -4.000000
v 1.878736 -2.618179 -4.144924
v -2.048975 -2.618179 -4.144924
v 2.023659 -4.000000 -4.962090
v 0.000000 -4.000000 -4.962090
v 0.000000 -2.618179 -4.817165
v -2.193897 -4.000000 -4.962090
v 1.878736 -2.618179 -4.817165
v -2.048975 -2.618179 -4.817165
v 2.023659 -2.618179 -4.000000
v 2.023659 -2.618179 -4.962090
v 0.000000 -2.618179 -4.000000
v -2.193898 -2.618179 -4.000000
v 0.000000 -2.618179 -4.962090
v -2.193898 -2.618179 -4.962090
v 0.000000 -3.177187 -4.817165
v 0.000000 -3.177187 -4.144924
v 1.878736 -3.177187 -4.144924
v 1.878736 -3.177187 -4.817165
v -2.048975 -3.177187 -4.144924
v -2.048975 -3.177187 -4.817165
vt 0.667848 0.625000
vt 0.667848 0.687500
vt 0.572101 0.687500
vt 0.572101 0.625000
vt 0.620753 0.047094
vt 0.620753 0.062500
vt 0.569747 0.062500
vt 0.569747 0.002354
vt 0.553663 0.875000
vt 0.565255 0.875000
vt 0.565255 1.000000
vt 0.553663 1.000000
vt 0.250000 0.687500
vt 0.375000 0.687500
vt 0.375000 0.750000
vt 0.250000 0.750000
vt 0.620753 0.297094
vt 0.620753 0.375000
vt 0.569747 0.375000
vt 0.569747 0.252354
vt 0.620753 0.797094
vt 0.620753 0.875000
vt 0.569747 0.875000
vt 0.569747 0.752354
vt 0.620753 0.125000
vt 0.620753 0.187500
vt 0.569747 0.187500
vt 0.569747 0.125000
vt 0.553663 0.062500
vt 0.565255 0.062500
vt 0.565255 0.125000
vt 0.553663 0.125000
vt 0.683594 0.625000
vt 0.750000 0.625000
vt 0.750000 0.687500
vt 0.742612 0.656390
vt 0.730762 0.654809
vt 0.730762 0.674761
vt 0.724226 0.673225
vt 0.683594 0.687500
vt 0.750000 0.562500
vt 0.816406 0.562500
vt 0.816406 0.625000
vt 0.553663 0.562500
vt 0.565255 0.562500
vt 0.565255 0.625000
vt 0.553663 0.625000
vt 0.125000 0.625000
vt 0.250000 0.625000
vt 0.125000 0.687500
vt 0.125000 0.562500
vt 0.250000 0.562500
vt 0.667848 0.562500
vt 0.572101 0.562500
vt 0.125000 0.750000
vt 0.620753 0.952906
vt 0.569747 0.997646
vt 0.553663 0.687500
vt 0.565255 0.687500
vt 0.565255 0.750000
vt 0.553663 0.750000
vt 0.125000 0.500000
vt 0.181441 0.500000
vt 0.250000 0.500000
vt 0.553663 0.375000
vt 0.565255 0.375000
vt 0.565255 0.500000
vt 0.553663 0.500000
vt 0.553663 0.187500
vt 0.565255 0.187500
vt 0.565255 0.250000
vt 0.553663 0.250000
vt 0.313239 0.500000
vt 0.375000 0.500000
vt 0.375000 0.562500
vt 0.620753 0.202906
vt 0.569747 0.247646
vt 0.377500 0.622500
vt 0.377500 0.565000
vt 0.377500 0.565000
vt 0.377500 0.622500
vt 0.497500 0.565000
vt 0.497500 0.622500
vt 0.497500 0.622500
vt 0.497500 0.565000
vt 0.375000 0.625000
vt 0.375000 0.562500
vt 0.377500 0.627500
vt 0.377500 0.685000
vt 0.375000 0.687500
vt 0.497500 0.685000
vt 0.377500 0.685000
vt 0.497500 0.685000
vt 0.377500 0.627500
vt 0.497500 0.627500
vt 0.497500 0.627500
vt 0.442819 0.622500
vt 0.442792 0.622500
vt 0.437345 0.622500
vt 0.437319 0.622500
vt 0.437319 0.622500
vt 0.442792 0.622500
vt 0.437317 0.615348
vt 0.437317 0.615348
vt 0.442791 0.615348
vt 0.442791 0.615348
vt 0.553663 0.000000
vt 0.565255 0.000000
vt 0.683594 0.562500
vt 0.816406 0.687500
vt 0.816406 0.691406
vt 0.750000 0.691406
vt 0.683594 0.691406
vt 0.750000 0.558594
vt 0.816406 0.558594
vt 0.667848 0.702906
vt 0.572101 0.747646
vt 0.667848 0.547094
vt 0.572101 0.502354
vt 0.569747 0.497646
vt 0.620753 0.452906
vt 0.625000 0.875000
vt 0.625000 0.941406
vt 0.625000 0.187500
vt 0.625000 0.191406
vt 0.625000 0.375000
vt 0.625000 0.441406
vt 0.625000 0.062500
vt 0.625000 0.125000
vt 0.625000 0.058594
vt 0.625000 0.808594
vt 0.625000 0.308594
vt 0.683594 0.558594
vt 0.742611 0.677546
vt 0.497073 0.875000
vt 0.497073 0.807931
vt 0.500000 0.805004
vt 0.500000 0.875000
vt 0.497073 0.935395
vt 0.500000 0.938322
vt 0.455414 0.935395
vt 0.452487 0.938322
vt 0.455414 0.875000
vt 0.452487 0.875000
vt 0.455415 0.807931
vt 0.452487 0.805004
vt 0.375000 0.625000
vt 0.500000 0.562500
vt 0.500000 0.562500
vt 0.500000 0.625000
vt 0.500000 0.687500
vt 0.500000 0.687500
vt 0.500000 0.625000
vt 0.375000 0.306441
vt 0.418182 0.306441
vt 0.418182 0.306441
vt 0.375000 0.306441
vt 0.418182 0.310970
vt 0.418182 0.310970
vt 0.418182 0.310970
vt 0.418182 0.310970
vt 0.375000 0.375000
vt 0.418182 0.375000
vt 0.418182 0.438239
vt 0.375000 0.438239
vt 0.181441 0.500000
vt 0.250000 0.500000
vt 0.418182 0.433711
vt 0.418182 0.433711
vt 0.418182 0.433711
vt 0.418182 0.433711
vt 0.313239 0.500000
vt 0.418182 0.438239
vt 0.375000 0.438239
vt 0.418182 0.375000
vt 0.418182 0.375000
vt 0.418182 0.375000
vt 0.418182 0.375000
vt 0.418182 0.375000
vt 0.375000 0.125000
vt 0.439832 0.125000
vt 0.439830 0.131310
vt 0.445304 0.131310
vt 0.445305 0.125000
vt 0.500000 0.125000
vt 0.500000 0.187500
vt 0.375000 0.187500
vt 0.418182 0.500000
vt 0.500000 0.500000
vt 0.500000 0.750000
vt 0.375000 0.875000
vt 0.375000 0.250000
vt 0.418182 0.250000
vt 0.375000 0.000000
vt 0.500000 0.000000
vt 0.500000 0.062500
vt 0.375000 0.062500
vt 0.500000 0.250000
vt 0.500000 1.000000
vt 0.375000 1.000000
vt 0.500000 0.375000
vt 0.730762 0.654809
vt 0.730762 0.674761
vt 0.730762 0.654809
vt 0.730762 0.674761
vt 0.742611 0.677546
vt 0.742612 0.656390
vt 0.742612 0.656390
vt 0.742611 0.677546
vn 0.7411 0.6714 0.0000
vn -0.7411 0.6714 0.0000
vn 0.0000 -0.9669 0.2552
vn 0.0000 -1.0000 0.0000
vn 0.0000 0.7713 -0.6364
vn 0.0000 0.7713 0.6364
vn -0.2552 -0.9669 0.0000
vn 0.0000 1.0000 0.0000
vn 0.2552 -0.9669 0.0000
vn 0.0000 -0.9669 -0.2552
vn 0.0000 0.0000 1.0000
vn 0.0000 0.0000 -1.0000
vn 0.0000 -1.0000 0.0003
vn 0.0000 1.0000 -0.0003
vn 0.0000 -0.1824 0.9832
vn 0.9832 -0.1824 0.0000
vn -0.9832 -0.1824 0.0000
vn 0.0000 -0.1824 -0.9832
vn 0.0000 0.6601 0.7512
vn 0.5187 0.8550 0.0000
vn -0.5187 0.8550 0.0000
vn 0.0000 0.6601 -0.7512
vn 0.0000 -0.3928 0.9196
vn 0.3927 0.0000 0.9196
vn 0.0000 0.3928 0.9196
vn -0.3928 0.0000 0.9196
vn 1.0000 0.0000 0.0000
vn -1.0000 -0.0000 0.0000
vn 0.0001 0.0000 1.0000
vn -1.0000 0.0000 0.0001
usemtl grey
s off
f 112/1/1 115/2/1 92/3/1 87/4/1
f 110/5/2 117/6/2 94/7/2 85/8/2
f 71/9/3 95/10/3 86/11/3 75/12/3
f 13/13/4 8/14/4 2/15/4 10/16/4
f 108/17/5 121/18/5 98/19/5 83/20/5
f 106/21/6 119/22/6 96/23/6 81/24/6
f 114/25/2 123/26/2 100/27/2 89/28/2
f 76/29/7 93/30/7 90/31/7 78/32/7
f 111/33/8 12/34/8 14/35/8 128/36/8 132/37/8 131/38/8 130/39/8 116/40/8
f 17/41/8 124/42/8 113/43/8 12/34/8
f 68/44/9 101/45/9 88/46/9 77/47/9
f 5/48/4 11/49/4 13/13/4 7/50/4
f 117/6/2 114/25/2 89/28/2 94/7/2
f 16/51/4 18/52/4 11/49/4 5/48/4
f 125/53/1 112/1/1 87/4/1 102/54/1
f 7/50/4 13/13/4 10/16/4 4/55/4
f 119/22/6 110/56/6 85/57/6 96/23/6
f 72/58/9 91/59/9 82/60/9 70/61/9
f 3/62/4 156/63/4 9/64/4 18/52/4 16/51/4
f 69/65/10 97/66/10 80/67/10 67/68/10
f 74/69/7 99/70/7 84/71/7 73/72/7
f 9/64/4 153/73/4 1/74/4 15/75/4 18/52/4
f 123/26/2 108/76/2 83/77/2 100/27/2
f 32/78/4 35/79/4 47/80/4 46/81/4
f 36/82/8 33/83/8 45/84/8 48/85/8
f 35/79/11 32/78/11 42/86/11 39/87/11
f 38/88/11 31/89/11 41/90/11 42/86/11
f 34/91/11 31/89/11 49/92/11 52/93/11
f 31/89/4 38/88/4 50/94/4 49/92/4
f 35/79/12 36/82/12 48/85/12 47/80/12
f 37/95/8 34/91/8 52/93/8 51/96/8
f 33/83/11 53/97/11 55/98/11 45/84/11
f 38/88/12 37/95/12 51/96/12 50/94/12
f 55/98/11 53/97/11 54/99/11 56/100/11
f 56/100/11 54/99/11 32/78/11 46/81/11
f 55/98/11 56/100/11 64/101/11 63/102/11
f 56/100/13 60/103/13 66/104/13 64/101/13
f 59/105/14 55/98/14 63/102/14 65/106/14
f 75/107/7 86/108/7 93/30/7 76/29/7
f 70/61/3 82/60/3 95/10/3 71/9/3
f 73/72/10 84/71/10 97/66/10 69/65/10
f 67/68/9 80/67/9 101/45/9 68/44/9
f 77/47/9 88/46/9 91/59/9 72/58/9
f 78/32/7 90/31/7 99/70/7 74/69/7
f 126/109/8 17/41/8 12/34/8 111/33/8
f 14/35/8 118/110/8 109/111/8 120/112/8
f 116/40/8 14/35/8 120/112/8 105/113/8
f 122/114/8 107/115/8 124/42/8 17/41/8
f 12/34/8 113/43/8 118/110/8 14/35/8
f 115/2/1 106/116/1 81/117/1 92/3/1
f 104/118/1 125/53/1 102/54/1 79/119/1
f 86/11/15 95/10/15 96/23/15 85/57/15
f 82/60/16 91/59/16 92/3/16 81/117/16
f 84/71/17 99/70/17 100/27/17 83/77/17
f 80/67/18 97/66/18 98/19/18 79/120/18
f 88/46/16 101/45/16 102/54/16 87/4/16
f 90/31/17 93/30/17 94/7/17 89/28/17
f 91/59/16 88/46/16 87/4/16 92/3/16
f 93/30/17 86/108/17 85/8/17 94/7/17
f 95/10/15 82/60/15 81/24/15 96/23/15
f 97/66/18 84/71/18 83/20/18 98/19/18
f 99/70/17 90/31/17 89/28/17 100/27/17
f 101/45/16 80/67/16 79/119/16 102/54/16
f 121/18/5 104/121/5 79/120/5 98/19/5
f 120/122/19 109/123/19 110/56/19 119/22/19
f 116/40/20 105/113/20 106/116/20 115/2/20
f 124/124/21 107/125/21 108/76/21 123/26/21
f 122/126/22 103/127/22 104/121/22 121/18/22
f 126/109/20 111/33/20 112/1/20 125/53/20
f 118/128/21 113/129/21 114/25/21 117/6/21
f 111/33/20 116/40/20 115/2/20 112/1/20
f 109/130/21 118/128/21 117/6/21 110/5/21
f 105/131/19 120/122/19 119/22/19 106/21/19
f 107/132/22 122/126/22 121/18/22 108/17/22
f 113/129/21 124/124/21 123/26/21 114/25/21
f 103/133/20 126/109/20 125/53/20 104/118/20
f 103/133/8 122/114/8 17/41/8 126/109/8
f 116/40/8 130/39/8 131/38/8 129/134/8 128/36/8 14/35/8
f 28/135/23 141/136/23 146/137/23 147/138/23
f 143/139/23 28/135/23 147/138/23 148/140/23
f 144/141/24 143/139/24 148/140/24 149/142/24
f 142/143/25 144/141/25 149/142/25 150/144/25
f 145/145/25 142/143/25 150/144/25 151/146/25
f 141/136/26 145/145/26 151/146/26 146/137/26
usemtl wood
f 18/52/4 15/75/4 6/147/4 11/49/4
f 11/49/4 6/147/4 8/14/4 13/13/4
f 15/75/11 29/148/11 40/149/11 39/87/11
f 6/147/8 15/75/8 39/87/8 42/86/8
f 23/150/4 26/151/4 44/152/4 43/153/4
f 8/14/8 6/147/8 42/86/8 41/90/8
f 29/148/4 23/150/4 43/153/4 40/149/4
f 26/151/12 8/14/12 41/90/12 44/152/12
f 32/78/27 54/99/27 53/97/27 33/83/27 43/153/27 42/86/27
f 36/82/27 35/79/27 39/87/27 40/149/27
f 33/83/27 36/82/27 40/149/27 43/153/27
f 37/95/27 38/88/27 42/86/27 43/153/27
f 31/89/27 34/91/27 44/152/27 41/90/27
f 34/91/27 37/95/27 43/153/27 44/152/27
f 50/94/27 51/96/27 52/93/27 49/92/27
f 47/80/27 48/85/27 45/84/27 55/98/27 59/105/27 60/103/27 56/100/27 46/81/27
f 64/101/27 66/104/27 65/106/27 63/102/27
f 60/103/12 59/105/12 65/106/12 66/104/12
f 156/154/28 168/155/28 170/156/28 162/157/28
f 164/158/27 158/159/27 175/160/27 176/161/27
f 160/162/12 169/163/12 166/164/12 159/165/12
f 169/163/12 160/162/12 162/157/12 170/156/12
f 9/64/4 156/63/4 162/166/4 160/167/4
f 157/168/28 163/169/28 174/170/28 173/171/28
f 153/73/4 9/64/4 160/167/4 159/172/4
f 165/173/27 153/174/27 159/165/27 166/164/27
f 163/169/8 157/168/8 165/173/8 166/164/8
f 157/168/8 155/175/8 167/176/8 165/173/8
f 155/175/8 158/159/8 168/155/8 167/176/8
f 161/177/8 163/169/8 166/164/8 169/163/8
f 164/158/8 161/177/8 169/163/8 170/156/8
f 158/159/8 164/158/8 170/156/8 168/155/8
f 172/178/8 173/171/8 174/170/8 171/179/8
f 175/160/8 172/178/8 171/179/8 176/161/8
f 163/169/11 161/177/11 171/179/11 174/170/11
f 155/175/12 157/168/12 173/171/12 172/178/12
f 161/177/11 164/158/11 176/161/11 171/179/11
f 158/159/12 155/175/12 172/178/12 175/160/12
usemtl brickabraxk
f 5/180/28 58/181/28 62/182/28 61/183/28 57/184/28 24/185/28 30/186/28 16/187/28
f 1/74/27 154/188/27 19/189/27 29/148/27 15/75/27
f 2/15/11 21/190/11 146/137/11 151/146/11 150/144/11 10/191/11
f 3/192/12 152/193/12 168/155/12
f 4/194/28 20/195/28 25/196/28 7/197/28
f 7/197/28 25/196/28 24/185/28 57/184/28 58/181/28 5/180/28
f 8/14/27 26/151/27 21/190/27 2/15/27
f 16/187/28 30/186/28 22/198/28 152/193/28 3/192/28
f 10/191/11 150/144/11 149/142/11 148/140/11 20/199/11 4/200/11
f 57/184/28 61/183/28 62/182/28 58/181/28
f 25/196/28 76/29/28 78/32/28 24/185/28
f 27/201/12 69/65/12 67/68/12 19/189/12
f 22/198/12 73/72/12 69/65/12 27/201/12
f 19/189/27 67/68/27 68/44/27 29/148/27
f 21/190/11 70/61/11 71/9/11 147/138/11 146/137/11
f 26/151/27 72/58/27 70/61/27 21/190/27
f 30/186/28 74/69/28 73/72/28 22/198/28
f 23/150/27 77/47/27 72/58/27 26/151/27
f 29/148/27 68/44/27 77/47/27 23/150/27
f 147/138/11 71/9/11 75/12/11 20/199/11 148/140/11
f 24/185/28 78/32/28 74/69/28 30/186/28
f 20/195/28 75/107/28 76/29/28 25/196/28
f 131/38/27 132/37/27 136/202/27 134/203/27
f 134/203/27 136/202/27 140/204/27 138/205/27
f 129/134/29 131/38/29 134/203/29 133/206/29
f 132/37/12 128/36/12 135/207/12 136/202/12
f 128/36/30 129/134/30 133/206/30 135/207/30
f 138/205/8 140/204/8 139/208/8 137/209/8
f 135/207/30 133/206/30 137/209/30 139/208/30
f 136/202/12 135/207/12 139/208/12 140/204/12
f 133/206/29 134/203/29 138/205/29 137/209/29
f 165/173/12 167/176/12 27/201/12 19/189/12 154/188/12 1/74/12 153/174/12
f 168/155/12 152/193/12 22/198/12 27/201/12 167/176/12
f 156/154/12 3/192/12 168/155/12
